<mxfile host="app.diagrams.net" modified="2021-05-09T13:23:53.926Z" agent="5.0 (Windows NT 10.0; Win64; x64) AppleWebKit/537.36 (KHTML, like Gecko) Chrome/89.0.4389.90 Safari/537.36 Edg/89.0.774.57" etag="0u45KcVa5A0bELia4qA7" version="14.6.11" type="github">
  <diagram name="Page-1" id="9f46799a-70d6-7492-0946-bef42562c5a5">
    <mxGraphModel dx="358" dy="260" grid="1" gridSize="10" guides="1" tooltips="1" connect="1" arrows="1" fold="1" page="1" pageScale="1" pageWidth="1100" pageHeight="850" background="#ffffff" math="0" shadow="0">
      <root>
        <mxCell id="0" />
        <mxCell id="1" parent="0" />
        <mxCell id="J3t7UeXzdO5x7TRZ1aSP-10" value="" style="rounded=1;whiteSpace=wrap;html=1;fillColor=#f5f5f5;strokeColor=#666666;fontColor=#333333;" vertex="1" parent="1">
          <mxGeometry x="490" y="490" width="270" height="220" as="geometry" />
        </mxCell>
        <mxCell id="J3t7UeXzdO5x7TRZ1aSP-9" value="" style="aspect=fixed;html=1;points=[];align=center;image;fontSize=12;image=img/lib/mscae/Docker.svg;" vertex="1" parent="1">
          <mxGeometry x="582.3199999999999" y="680" width="85.37" height="70" as="geometry" />
        </mxCell>
        <mxCell id="J3t7UeXzdO5x7TRZ1aSP-11" value="Docker" style="rounded=1;whiteSpace=wrap;html=1;fillColor=#dae8fc;strokeColor=#6c8ebf;" vertex="1" parent="1">
          <mxGeometry x="510" y="650" width="230" height="30" as="geometry" />
        </mxCell>
        <mxCell id="J3t7UeXzdO5x7TRZ1aSP-12" value="" style="rounded=1;whiteSpace=wrap;html=1;" vertex="1" parent="1">
          <mxGeometry x="516.15" y="510" width="110" height="130" as="geometry" />
        </mxCell>
        <mxCell id="J3t7UeXzdO5x7TRZ1aSP-13" value="&lt;pre style=&quot;box-sizing: border-box ; margin-top: 0px ; margin-bottom: 0px ; overflow-wrap: normal ; padding: 16px ; overflow: auto ; line-height: 1.45 ; border-radius: 6px ; word-break: normal ; color: rgb(36 , 41 , 46)&quot;&gt;&lt;font style=&quot;font-size: 3px&quot;&gt;&lt;b&gt;10-alpine&lt;/b&gt;&lt;/font&gt;&lt;/pre&gt;" style="rounded=1;whiteSpace=wrap;html=1;fillColor=#1ba1e2;strokeColor=#006EAF;fontColor=#ffffff;" vertex="1" parent="1">
          <mxGeometry x="521.14" y="600" width="100" height="30" as="geometry" />
        </mxCell>
        <mxCell id="J3t7UeXzdO5x7TRZ1aSP-14" value="Node.js" style="rounded=1;whiteSpace=wrap;html=1;fillColor=#dae8fc;strokeColor=#6c8ebf;" vertex="1" parent="1">
          <mxGeometry x="529.99" y="530" width="82.31" height="60" as="geometry" />
        </mxCell>
        <mxCell id="J3t7UeXzdO5x7TRZ1aSP-15" value="" style="rounded=1;whiteSpace=wrap;html=1;" vertex="1" parent="1">
          <mxGeometry x="630" y="510" width="120" height="130" as="geometry" />
        </mxCell>
        <mxCell id="J3t7UeXzdO5x7TRZ1aSP-17" value="&lt;span style=&quot;color: rgb(36 , 41 , 46) ; font-family: , &amp;#34;consolas&amp;#34; , &amp;#34;liberation mono&amp;#34; , &amp;#34;menlo&amp;#34; , monospace ; background-color: rgb(255 , 255 , 255)&quot;&gt;ubuntu:xenial&lt;/span&gt;" style="rounded=1;whiteSpace=wrap;html=1;fillColor=#1ba1e2;strokeColor=#006EAF;fontColor=#ffffff;" vertex="1" parent="1">
          <mxGeometry x="640" y="600" width="100" height="30" as="geometry" />
        </mxCell>
        <mxCell id="J3t7UeXzdO5x7TRZ1aSP-18" value="MongoDB" style="rounded=1;whiteSpace=wrap;html=1;fillColor=#dae8fc;strokeColor=#6c8ebf;" vertex="1" parent="1">
          <mxGeometry x="645" y="535" width="90" height="50" as="geometry" />
        </mxCell>
      </root>
    </mxGraphModel>
  </diagram>
</mxfile>
